<?xml version="1.0" encoding="UTF-8"?>
<svg xmlns="http://www.w3.org/2000/svg" xmlns:xlink="http://www.w3.org/1999/xlink" width="3873" height="3873" viewBox="0 0 3873 3873">
<circle cx="1936.5" cy="1936.5" r="1936.5" fill="#1E1E2F"/>
<g clip-path="url(#clip-0)">
<rect x="-387.3" y="-387.3" width="4647.6" height="4647.6" fill="url(#radial-pattern-0)"/>
</g>
<path fill-rule="evenodd" fill="rgb(100%, 100%, 99.609375%)" fill-opacity="1" d="M 2503 1735.5 L 2625 1566.199219 L 2503 1396.800781 C 2492.699219 1382.5 2496 1362.601562 2510.199219 1352.300781 C 2524.5 1342 2544.398438 1345.300781 2554.699219 1359.5 L 2664.300781 1511.601562 L 2773.898438 1359.5 C 2784.199219 1345.199219 2804.101562 1342 2818.398438 1352.300781 C 2832.699219 1362.601562 2835.898438 1382.5 2825.601562 1396.800781 L 2703.601562 1566.199219 L 2825.601562 1735.5 C 2835.898438 1749.800781 2832.601562 1769.699219 2818.398438 1780 C 2812.800781 1784.101562 2806.300781 1786 2799.800781 1786 C 2789.898438 1786 2780.101562 1781.398438 2773.898438 1772.800781 L 2664.398438 1620.800781 L 2554.898438 1772.800781 C 2548.699219 1781.398438 2538.898438 1786 2529 1786 C 2522.5 1786 2516 1784.101562 2510.398438 1780 C 2495.898438 1769.699219 2492.699219 1749.800781 2503 1735.5 Z M 1380 1378.101562 L 1380 1616.601562 C 1380 1710 1304 1785.898438 1210.699219 1785.898438 C 1117.300781 1785.898438 1041.398438 1709.898438 1041.398438 1616.601562 L 1041.398438 1378.101562 C 1041.398438 1360.5 1055.699219 1346.199219 1073.300781 1346.199219 C 1090.898438 1346.199219 1105.199219 1360.5 1105.199219 1378.101562 L 1105.199219 1616.601562 C 1105.199219 1674.800781 1152.5 1722.101562 1210.699219 1722.101562 C 1268.898438 1722.101562 1316.199219 1674.800781 1316.199219 1616.601562 L 1316.199219 1378.101562 C 1316.199219 1360.5 1330.5 1346.199219 1348.101562 1346.199219 C 1365.800781 1346.300781 1380 1360.5 1380 1378.101562 Z M 1713.5 1378.101562 C 1713.5 1395.699219 1699.199219 1410 1681.601562 1410 L 1590.199219 1410 L 1590.199219 1722.199219 L 1681.601562 1722.199219 C 1699.199219 1722.199219 1713.5 1736.5 1713.5 1754.101562 C 1713.5 1771.699219 1699.199219 1786 1681.601562 1786 L 1435 1786 C 1417.398438 1786 1403.101562 1771.699219 1403.101562 1754.101562 C 1403.101562 1736.5 1417.398438 1722.199219 1435 1722.199219 L 1526.398438 1722.199219 L 1526.398438 1410 L 1435 1410 C 1417.398438 1410 1403.101562 1395.699219 1403.101562 1378.101562 C 1403.101562 1360.5 1417.398438 1346.199219 1435 1346.199219 L 1558 1346.199219 C 1558.101562 1346.199219 1558.199219 1346.199219 1558.300781 1346.199219 C 1558.398438 1346.199219 1558.5 1346.199219 1558.601562 1346.199219 L 1681.601562 1346.199219 C 1699.199219 1346.300781 1713.5 1360.5 1713.5 1378.101562 Z M 2306.5 1786 C 2213.101562 1786 2137.199219 1710 2137.199219 1616.699219 L 2137.199219 1378.199219 C 2137.199219 1360.601562 2151.5 1346.300781 2169.101562 1346.300781 C 2186.699219 1346.300781 2201 1360.601562 2201 1378.199219 L 2201 1616.699219 C 2201 1674.898438 2248.300781 1722.199219 2306.5 1722.199219 C 2364.699219 1722.199219 2412 1674.898438 2412 1616.699219 L 2412 1378.199219 C 2412 1360.601562 2426.300781 1346.300781 2443.898438 1346.300781 C 2461.5 1346.300781 2475.800781 1360.601562 2475.800781 1378.199219 L 2475.800781 1616.699219 C 2475.898438 1710 2399.898438 1786 2306.5 1786 Z M 911.800781 2163.101562 L 2961.300781 2163.101562 L 2961.300781 1203.101562 C 2961.300781 1076.5 2858.300781 973.601562 2731.800781 973.601562 L 1141.300781 973.601562 C 1014.699219 973.601562 911.800781 1076.601562 911.800781 1203.101562 Z M 1761.300781 1805.699219 L 2056.398438 1294.699219 C 2065.199219 1279.5 2084.699219 1274.199219 2099.898438 1283 C 2115.101562 1291.800781 2120.398438 1311.300781 2111.601562 1326.601562 L 1816.5 1837.601562 C 1810.601562 1847.898438 1799.898438 1853.601562 1788.898438 1853.601562 C 1783.5 1853.601562 1778 1852.199219 1773 1849.300781 C 1757.699219 1840.398438 1752.5 1820.898438 1761.300781 1805.699219 "/>
<path fill-rule="evenodd" fill="rgb(100%, 100%, 99.609375%)" fill-opacity="1" d="M 2958.398438 2226.800781 L 914.601562 2226.800781 C 932 2336.300781 1027 2420.199219 1141.300781 2420.199219 L 2731.699219 2420.199219 C 2846 2420.199219 2941 2336.300781 2958.398438 2226.800781 "/>
<path fill-rule="evenodd" fill="rgb(100%, 100%, 99.609375%)" fill-opacity="1" d="M 2253.199219 2484 L 1619.800781 2484 L 1619.800781 2681.699219 L 2253.199219 2681.699219 L 2253.199219 2484 "/>
<path fill-rule="evenodd" fill="rgb(100%, 100%, 99.609375%)" fill-opacity="1" d="M 2285.101562 2745.398438 L 1541.601562 2745.398438 C 1499.101562 2745.398438 1464.601562 2779.898438 1464.601562 2822.398438 C 1464.601562 2864.898438 1499.101562 2899.398438 1541.601562 2899.398438 L 2331.398438 2899.398438 C 2373.898438 2899.398438 2408.398438 2864.898438 2408.398438 2822.398438 C 2408.398438 2779.898438 2373.898438 2745.398438 2331.398438 2745.398438 L 2285.101562 2745.398438 "/>
</svg>
