<svg xmlns="http://www.w3.org/2000/svg" xmlns:xlink="http://www.w3.org/1999/xlink" width="336" zoomAndPan="magnify" viewBox="0 0 252 143.999998" height="192" preserveAspectRatio="xMidYMid meet" version="1.0"><defs><g/><clipPath id="97b91047c4"><path d="M 16.285156 0 L 236 0 L 236 144 L 16.285156 144 Z M 16.285156 0 " clip-rule="nonzero"/></clipPath></defs><g clip-path="url(#97b91047c4)"><path fill="#cccccc" d="M 202.441406 0 L 49.882812 0 C 31.394531 0 16.375 14.996094 16.375 33.457031 L 16.375 110.542969 C 16.375 129.003906 31.394531 144 49.882812 144 L 202.441406 144 C 220.929688 144 235.945312 129.003906 235.945312 110.542969 L 235.945312 33.457031 C 235.945312 14.996094 220.929688 0 202.441406 0 Z M 103.589844 111.070312 L 103.589844 32.972656 L 171.304688 72.042969 L 103.589844 111.113281 Z M 103.589844 111.070312 " fill-opacity="1" fill-rule="nonzero"/></g><g fill="#cccccc" fill-opacity="1"><g transform="translate(55.803162, 82.333737)"><g><path d="M 0 -3.21875 L 0.53125 -3.21875 L 1.234375 -1.375 C 1.390625 -0.957031 1.484375 -0.65625 1.515625 -0.46875 L 1.546875 -0.46875 C 1.566406 -0.570312 1.617188 -0.742188 1.703125 -0.984375 C 1.785156 -1.222656 2.050781 -1.96875 2.5 -3.21875 L 3.015625 -3.21875 L 1.640625 0.453125 C 1.503906 0.804688 1.34375 1.054688 1.15625 1.203125 C 0.976562 1.359375 0.753906 1.4375 0.484375 1.4375 C 0.335938 1.4375 0.191406 1.421875 0.046875 1.390625 L 0.046875 1 C 0.148438 1.019531 0.269531 1.03125 0.40625 1.03125 C 0.738281 1.03125 0.976562 0.84375 1.125 0.46875 L 1.296875 0.015625 Z M 0 -3.21875 "/></g></g><g transform="translate(58.826599, 82.333737)"><g><path d="M 3.28125 -1.609375 C 3.28125 -1.085938 3.148438 -0.675781 2.890625 -0.375 C 2.628906 -0.0820312 2.265625 0.0625 1.796875 0.0625 C 1.515625 0.0625 1.257812 -0.00390625 1.03125 -0.140625 C 0.8125 -0.273438 0.640625 -0.46875 0.515625 -0.71875 C 0.398438 -0.976562 0.34375 -1.273438 0.34375 -1.609375 C 0.34375 -2.128906 0.472656 -2.535156 0.734375 -2.828125 C 0.992188 -3.117188 1.351562 -3.265625 1.8125 -3.265625 C 2.269531 -3.265625 2.628906 -3.113281 2.890625 -2.8125 C 3.148438 -2.519531 3.28125 -2.117188 3.28125 -1.609375 Z M 0.84375 -1.609375 C 0.84375 -1.203125 0.921875 -0.890625 1.078125 -0.671875 C 1.242188 -0.453125 1.488281 -0.34375 1.8125 -0.34375 C 2.125 -0.34375 2.363281 -0.445312 2.53125 -0.65625 C 2.695312 -0.875 2.78125 -1.191406 2.78125 -1.609375 C 2.78125 -2.015625 2.695312 -2.320312 2.53125 -2.53125 C 2.363281 -2.75 2.125 -2.859375 1.8125 -2.859375 C 1.488281 -2.859375 1.242188 -2.753906 1.078125 -2.546875 C 0.921875 -2.335938 0.84375 -2.023438 0.84375 -1.609375 Z M 0.84375 -1.609375 "/></g></g><g transform="translate(62.450623, 82.333737)"><g><path d="M 0.96875 -3.21875 L 0.96875 -1.125 C 0.96875 -0.863281 1.023438 -0.664062 1.140625 -0.53125 C 1.265625 -0.40625 1.457031 -0.34375 1.71875 -0.34375 C 2.050781 -0.34375 2.296875 -0.4375 2.453125 -0.625 C 2.609375 -0.8125 2.6875 -1.113281 2.6875 -1.53125 L 2.6875 -3.21875 L 3.171875 -3.21875 L 3.171875 0 L 2.765625 0 L 2.703125 -0.4375 L 2.671875 -0.4375 C 2.566406 -0.269531 2.425781 -0.144531 2.25 -0.0625 C 2.070312 0.0195312 1.875 0.0625 1.65625 0.0625 C 1.257812 0.0625 0.960938 -0.03125 0.765625 -0.21875 C 0.578125 -0.40625 0.484375 -0.703125 0.484375 -1.109375 L 0.484375 -3.21875 Z M 0.96875 -3.21875 "/></g></g><g transform="translate(66.13324, 82.333737)"><g><path d="M 1.546875 -0.34375 C 1.640625 -0.34375 1.722656 -0.347656 1.796875 -0.359375 C 1.878906 -0.367188 1.945312 -0.382812 2 -0.40625 L 2 -0.03125 C 1.9375 0 1.851562 0.0195312 1.75 0.03125 C 1.65625 0.0507812 1.566406 0.0625 1.484375 0.0625 C 0.859375 0.0625 0.546875 -0.265625 0.546875 -0.921875 L 0.546875 -2.828125 L 0.09375 -2.828125 L 0.09375 -3.0625 L 0.546875 -3.265625 L 0.75 -3.953125 L 1.03125 -3.953125 L 1.03125 -3.21875 L 1.96875 -3.21875 L 1.96875 -2.828125 L 1.03125 -2.828125 L 1.03125 -0.9375 C 1.03125 -0.75 1.078125 -0.601562 1.171875 -0.5 C 1.265625 -0.394531 1.390625 -0.34375 1.546875 -0.34375 Z M 1.546875 -0.34375 "/></g></g><g transform="translate(68.251404, 82.333737)"><g><path d="M 0.96875 -3.21875 L 0.96875 -1.125 C 0.96875 -0.863281 1.023438 -0.664062 1.140625 -0.53125 C 1.265625 -0.40625 1.457031 -0.34375 1.71875 -0.34375 C 2.050781 -0.34375 2.296875 -0.4375 2.453125 -0.625 C 2.609375 -0.8125 2.6875 -1.113281 2.6875 -1.53125 L 2.6875 -3.21875 L 3.171875 -3.21875 L 3.171875 0 L 2.765625 0 L 2.703125 -0.4375 L 2.671875 -0.4375 C 2.566406 -0.269531 2.425781 -0.144531 2.25 -0.0625 C 2.070312 0.0195312 1.875 0.0625 1.65625 0.0625 C 1.257812 0.0625 0.960938 -0.03125 0.765625 -0.21875 C 0.578125 -0.40625 0.484375 -0.703125 0.484375 -1.109375 L 0.484375 -3.21875 Z M 0.96875 -3.21875 "/></g></g><g transform="translate(71.934021, 82.333737)"><g><path d="M 2.015625 -3.265625 C 2.429688 -3.265625 2.753906 -3.117188 2.984375 -2.828125 C 3.222656 -2.546875 3.34375 -2.140625 3.34375 -1.609375 C 3.34375 -1.078125 3.222656 -0.664062 2.984375 -0.375 C 2.753906 -0.0820312 2.429688 0.0625 2.015625 0.0625 C 1.804688 0.0625 1.613281 0.0234375 1.4375 -0.046875 C 1.257812 -0.128906 1.113281 -0.25 1 -0.40625 L 0.96875 -0.40625 L 0.859375 0 L 0.515625 0 L 0.515625 -4.5625 L 1 -4.5625 L 1 -3.453125 C 1 -3.203125 0.992188 -2.976562 0.984375 -2.78125 L 1 -2.78125 C 1.226562 -3.101562 1.566406 -3.265625 2.015625 -3.265625 Z M 1.9375 -2.859375 C 1.601562 -2.859375 1.363281 -2.757812 1.21875 -2.5625 C 1.070312 -2.375 1 -2.054688 1 -1.609375 C 1 -1.160156 1.070312 -0.835938 1.21875 -0.640625 C 1.375 -0.441406 1.617188 -0.34375 1.953125 -0.34375 C 2.253906 -0.34375 2.476562 -0.453125 2.625 -0.671875 C 2.769531 -0.890625 2.84375 -1.203125 2.84375 -1.609375 C 2.84375 -2.023438 2.769531 -2.335938 2.625 -2.546875 C 2.476562 -2.753906 2.25 -2.859375 1.9375 -2.859375 Z M 1.9375 -2.859375 "/></g></g><g transform="translate(75.610778, 82.333737)"><g><path d="M 1.875 0.0625 C 1.394531 0.0625 1.019531 -0.0820312 0.75 -0.375 C 0.476562 -0.664062 0.34375 -1.066406 0.34375 -1.578125 C 0.34375 -2.097656 0.46875 -2.507812 0.71875 -2.8125 C 0.976562 -3.113281 1.320312 -3.265625 1.75 -3.265625 C 2.144531 -3.265625 2.457031 -3.128906 2.6875 -2.859375 C 2.925781 -2.597656 3.046875 -2.253906 3.046875 -1.828125 L 3.046875 -1.515625 L 0.84375 -1.515625 C 0.851562 -1.140625 0.945312 -0.851562 1.125 -0.65625 C 1.300781 -0.457031 1.554688 -0.359375 1.890625 -0.359375 C 2.234375 -0.359375 2.578125 -0.429688 2.921875 -0.578125 L 2.921875 -0.15625 C 2.742188 -0.0703125 2.578125 -0.015625 2.421875 0.015625 C 2.273438 0.046875 2.09375 0.0625 1.875 0.0625 Z M 1.734375 -2.859375 C 1.484375 -2.859375 1.28125 -2.773438 1.125 -2.609375 C 0.96875 -2.441406 0.878906 -2.207031 0.859375 -1.90625 L 2.53125 -1.90625 C 2.53125 -2.21875 2.460938 -2.453125 2.328125 -2.609375 C 2.191406 -2.773438 1.992188 -2.859375 1.734375 -2.859375 Z M 1.734375 -2.859375 "/></g></g></g></svg>